<?xml version="1.0" encoding="UTF-8" standalone="no"?>
<svg
   xmlns:dc="http://purl.org/dc/elements/1.1/"
   xmlns:cc="http://creativecommons.org/ns#"
   xmlns:rdf="http://www.w3.org/1999/02/22-rdf-syntax-ns#"
   xmlns:svg="http://www.w3.org/2000/svg"
   xmlns="http://www.w3.org/2000/svg"
   xmlns:xlink="http://www.w3.org/1999/xlink"
   xmlns:sodipodi="http://sodipodi.sourceforge.net/DTD/sodipodi-0.dtd"
   xmlns:inkscape="http://www.inkscape.org/namespaces/inkscape"
   width="210mm"
   height="297mm"
   viewBox="0 0 210 297"
   version="1.1"
   id="svg8"
   inkscape:version="1.0.1 (3bc2e813f5, 2020-09-07)"
   sodipodi:docname="Carrier Phase Measurement.svg">
  <defs
     id="defs2">
    <circle
       id="gpDot"
       r="1" />
    <path
       id="gpPt0"
       style="stroke-width:0.133"
       d="M-1,0 h2 M0,-1 v2" />
    <path
       id="gpPt1"
       style="stroke-width:0.133"
       d="M-1,-1 L1,1 M1,-1 L-1,1" />
    <path
       id="gpPt2"
       style="stroke-width:0.133"
       d="M-1,0 L1,0 M0,-1 L0,1 M-1,-1 L1,1 M-1,1 L1,-1" />
    <rect
       id="gpPt3"
       style="stroke-width:0.133"
       x="-1"
       y="-1"
       width="2"
       height="2" />
    <use
       xlink:href="#gpPt3"
       id="gpPt4"
       style="fill:currentColor; stroke:none" />
    <circle
       id="gpPt5"
       style="stroke-width:0.133"
       cx="0"
       cy="0"
       r="1" />
    <use
       xlink:href="#gpPt5"
       id="gpPt6"
       style="fill:currentColor; stroke:none" />
    <path
       id="gpPt7"
       style="stroke-width:0.133"
       d="M0,-1.33 L-1.33,0.67 L1.33,0.67 z" />
    <use
       xlink:href="#gpPt7"
       id="gpPt8"
       style="fill:currentColor; stroke:none" />
    <use
       xlink:href="#gpPt7"
       id="gpPt9"
       transform="rotate(180)" />
    <use
       xlink:href="#gpPt9"
       id="gpPt10"
       style="fill:currentColor; stroke:none" />
    <use
       xlink:href="#gpPt3"
       id="gpPt11"
       transform="rotate(45)" />
    <use
       xlink:href="#gpPt11"
       id="gpPt12"
       style="fill:currentColor; stroke:none" />
    <marker
       refX="0"
       refY="0"
       orient="auto"
       style="overflow:visible"
       id="Arrow2Mend">
      <path
         d="M 8.7185878,4.0337352 -2.2072895,0.01601326 8.7185884,-4.0017078 c -1.7454984,2.3720609 -1.7354408,5.6174519 -6e-7,8.035443 z"
         transform="matrix(-0.6,0,0,-0.6,3,0)"
         style="font-size:12px;fill-rule:evenodd;stroke-width:0.625;stroke-linejoin:round"
         id="path5820"
         inkscape:connector-curvature="0" />
    </marker>
    <marker
       refX="0"
       refY="0"
       orient="auto"
       style="overflow:visible"
       id="Arrow1Mstart">
      <path
         d="M 0,0 5,-5 -12.5,0 5,5 0,0 z"
         transform="scale(0.4,0.4)"
         style="fill-rule:evenodd;stroke:#000000;stroke-width:1pt;marker-start:none"
         id="path5828"
         inkscape:connector-curvature="0" />
    </marker>
  </defs>
  <sodipodi:namedview
     id="base"
     pagecolor="#ffffff"
     bordercolor="#666666"
     borderopacity="1.0"
     inkscape:pageopacity="0.0"
     inkscape:pageshadow="2"
     inkscape:zoom="1.3207751"
     inkscape:cx="433.58358"
     inkscape:cy="640.40839"
     inkscape:document-units="mm"
     inkscape:current-layer="layer1"
     inkscape:document-rotation="0"
     showgrid="true"
     inkscape:window-width="2436"
     inkscape:window-height="1400"
     inkscape:window-x="112"
     inkscape:window-y="-12"
     inkscape:window-maximized="1">
    <inkscape:grid
       type="xygrid"
       id="grid10" />
  </sodipodi:namedview>
  <metadata
     id="metadata5">
    <rdf:RDF>
      <cc:Work
         rdf:about="">
        <dc:format>image/svg+xml</dc:format>
        <dc:type
           rdf:resource="http://purl.org/dc/dcmitype/StillImage" />
        <dc:title />
      </cc:Work>
    </rdf:RDF>
  </metadata>
  <g
     inkscape:label="Calque 1"
     inkscape:groupmode="layer"
     id="layer1">
    <g
       id="g431"
       transform="matrix(0.04343747,0,0,0.22193933,65.976133,152.92953)">
      <path
         style="fill:none;stroke:#000000;stroke-width:0.5;stroke-linecap:butt;stroke-linejoin:miter;stroke-miterlimit:4;stroke-dasharray:none;stroke-opacity:1"
         d="m -294.017,109.63712 c 0,0 7.33248,-16.105313 11.24329,-24.040523 3.27732,-6.649829 6.26774,-13.483324 10.23778,-19.744304 3.11987,-4.920222 6.37641,-9.884833 10.60343,-13.894139 2.78382,-2.64044 5.93744,-5.081714 9.50651,-6.490026 1.49117,-0.588399 3.15717,-0.880653 4.75326,-0.73127 3.28145,0.307123 6.6161,1.411582 9.3237,3.290717 6.59267,4.575465 11.00654,11.780951 15.44809,18.46458 5.33254,8.024383 9.02424,17.029462 13.25428,25.685872 6.57204,13.449123 12.38276,27.259053 18.83021,40.768343 3.05789,6.40718 5.89118,12.94128 9.41511,19.10444 2.37004,4.14506 5.0006,8.15148 7.86116,11.97455 2.05917,2.75203 3.91722,5.8068 6.67284,7.86116 3.76265,2.80511 8.19949,5.86258 12.88864,5.66735 5.23101,-0.21779 9.88227,-4.02553 13.80273,-7.49553 5.26752,-4.66228 8.48537,-11.24177 12.24879,-17.18485 2.37181,-3.74549 4.48133,-7.65679 6.49002,-11.60892 2.8107,-5.5301 5.1609,-11.28249 7.76975,-16.91063 1.96628,-4.24191 6.89565,-14.68826 6.89565,-14.68826"
         id="path3102"
         inkscape:connector-curvature="0"
         sodipodi:nodetypes="csssssssssssssssssc" />
      <path
         style="fill:none;stroke:#000000;stroke-width:0.5;stroke-linecap:butt;stroke-linejoin:miter;stroke-miterlimit:4;stroke-dasharray:none;stroke-opacity:1"
         d="m -106.7703,109.66458 c 0,0 7.332478,-16.105313 11.243288,-24.040523 3.27732,-6.649829 6.26774,-13.483324 10.23778,-19.744304 3.11987,-4.920222 6.37641,-9.884833 10.60343,-13.894139 2.78382,-2.64044 5.93744,-5.081714 9.50651,-6.490026 1.49117,-0.588399 3.15717,-0.880653 4.75326,-0.73127 3.28145,0.307123 6.6161,1.411582 9.3237,3.290717 6.59267,4.575465 11.00654,11.780951 15.44809,18.46458 5.33254,8.024383 9.02424,17.029462 13.25428,25.685872 6.57204,13.449123 12.38276,27.259053 18.8302099,40.768343 3.05788996,6.40718 5.89118,12.94128 9.41511,19.10444 2.37004,4.14506 5.0006001,8.15148 7.8611601,11.97455 2.05917,2.75203 3.91722,5.8068 6.67284,7.86116 3.76265,2.80511 8.19949,5.86258 12.88864,5.66735 5.23101,-0.21779 9.88227,-4.02553 13.80273,-7.49553 5.26752,-4.66228 8.48537,-11.24177 12.24879,-17.18485 2.37181,-3.74549 4.48133,-7.65679 6.49002,-11.60892 2.8107,-5.5301 5.1609,-11.28249 7.76975,-16.91063 1.96628,-4.24191 6.89565,-14.68826 6.89565,-14.68826"
         id="path3102-3"
         inkscape:connector-curvature="0"
         sodipodi:nodetypes="csssssssssssssssssc" />
      <path
         style="fill:none;stroke:#000000;stroke-width:0.5;stroke-linecap:butt;stroke-linejoin:miter;stroke-miterlimit:4;stroke-dasharray:none;stroke-opacity:1"
         d="m 80.482758,109.68286 c 0,0 7.33248,-16.105313 11.24329,-24.040523 3.27732,-6.649826 6.26774,-13.483326 10.237782,-19.744306 3.11987,-4.92022 6.37641,-9.88483 10.60343,-13.89414 2.78382,-2.640435 5.93744,-5.081709 9.50651,-6.490021 1.49117,-0.588399 3.15717,-0.880653 4.75326,-0.73127 3.28145,0.307123 6.6161,1.411582 9.3237,3.290717 6.59267,4.575464 11.00654,11.780954 15.44809,18.464584 5.33254,8.02438 9.02424,17.029456 13.25428,25.685866 6.57204,13.449123 12.38276,27.259053 18.83021,40.768343 3.05789,6.40718 5.89118,12.94128 9.41511,19.10444 2.37004,4.14506 5.0006,8.15148 7.86116,11.97455 2.05917,2.75203 3.91722,5.8068 6.67284,7.86116 3.76265,2.80511 8.19949,5.86258 12.88864,5.66735 5.23101,-0.21779 9.88227,-4.02553 13.80273,-7.49553 5.26752,-4.66228 8.48537,-11.24177 12.24879,-17.18485 2.37181,-3.74549 4.48133,-7.65679 6.49002,-11.60892 2.8107,-5.5301 5.1609,-11.28249 7.76975,-16.91063 1.96628,-4.24191 6.89565,-14.68826 6.89565,-14.68826"
         id="path3102-5"
         inkscape:connector-curvature="0"
         sodipodi:nodetypes="csssssssssssssssssc" />
      <path
         style="fill:none;stroke:#000000;stroke-width:0.5;stroke-linecap:butt;stroke-linejoin:miter;stroke-miterlimit:4;stroke-dasharray:none;stroke-opacity:1"
         d="m 267.72946,109.71032 c 0,0 7.33248,-16.105313 11.24329,-24.040523 3.27732,-6.649826 6.26774,-13.483326 10.23778,-19.744306 3.11987,-4.92022 6.37641,-9.88483 10.60343,-13.89414 2.78382,-2.640435 5.93744,-5.081709 9.50651,-6.490021 1.49117,-0.588399 3.15717,-0.880653 4.75326,-0.73127 3.28145,0.307123 6.6161,1.411582 9.3237,3.290717 6.59267,4.575464 11.00654,11.780954 15.44809,18.464584 5.33254,8.02438 9.02424,17.029456 13.25428,25.685866 6.57204,13.449123 12.38276,27.259053 18.83021,40.768343 3.05789,6.40718 5.89118,12.94128 9.41511,19.10444 2.37004,4.14506 5.0006,8.15148 7.86116,11.97455 2.05917,2.75203 3.91722,5.8068 6.67284,7.86116 3.76265,2.80511 8.19949,5.86258 12.88864,5.66735 5.23101,-0.21779 9.88227,-4.02553 13.80273,-7.49553 5.26752,-4.66228 8.48537,-11.24177 12.24879,-17.18485 2.37181,-3.74549 4.48133,-7.65679 6.49002,-11.60892 2.8107,-5.5301 5.1609,-11.28249 7.76975,-16.91063 1.96628,-4.24191 6.89565,-14.68826 6.89565,-14.68826"
         id="path3102-3-0"
         inkscape:connector-curvature="0"
         sodipodi:nodetypes="csssssssssssssssssc" />
      <path
         style="fill:none;stroke:#000000;stroke-width:0.5;stroke-linecap:butt;stroke-linejoin:miter;stroke-miterlimit:4;stroke-dasharray:none;stroke-opacity:1"
         d="m 455.01022,109.64791 c 0,0 7.33248,-16.105313 11.24329,-24.040523 3.27732,-6.649832 6.26774,-13.483332 10.23778,-19.744312 3.11987,-4.92022 6.37641,-9.88483 10.60343,-13.89414 2.78382,-2.64044 5.93744,-5.08171 9.50651,-6.49002 1.49117,-0.5884 3.15717,-0.88065 4.75326,-0.73127 3.28145,0.30712 6.6161,1.41158 9.3237,3.29072 6.59267,4.57546 11.00654,11.78095 15.44809,18.46458 5.33254,8.02438 9.02424,17.029462 13.25428,25.685872 6.57204,13.449123 12.38276,27.259053 18.83021,40.768343 3.05789,6.40718 5.89118,12.94128 9.41511,19.10444 2.37004,4.14506 5.0006,8.15148 7.86116,11.97455 2.05917,2.75203 3.91722,5.8068 6.67285,7.86116 3.7627,2.80511 8.1995,5.86258 12.8886,5.66735 5.2311,-0.21779 9.8823,-4.02553 13.8028,-7.49553 5.2675,-4.66228 8.4853,-11.24177 12.2488,-17.18485 2.3718,-3.74549 4.4813,-7.65679 6.49,-11.60892 2.8107,-5.5301 5.1609,-11.28249 7.7697,-16.91063 1.9663,-4.24191 6.8957,-14.68826 6.8957,-14.68826"
         id="path3102-4"
         inkscape:connector-curvature="0"
         sodipodi:nodetypes="csssssssssssssssssc" />
      <path
         style="fill:none;stroke:#000000;stroke-width:0.5;stroke-linecap:butt;stroke-linejoin:miter;stroke-miterlimit:4;stroke-dasharray:none;stroke-opacity:1"
         d="m 642.25689,109.67537 c 0,0 7.3325,-16.105313 11.2433,-24.040523 3.2774,-6.649832 6.2678,-13.483332 10.2378,-19.744312 3.1199,-4.92022 6.3764,-9.88483 10.6034,-13.89414 2.7839,-2.64044 5.9375,-5.08171 9.5066,-6.49002 1.4911,-0.5884 3.1571,-0.88065 4.7532,-0.73127 3.2815,0.30712 6.6161,1.41158 9.3237,3.29072 6.5927,4.57546 11.0066,11.78095 15.4481,18.46458 5.3325,8.02438 9.0242,17.029462 13.2543,25.685872 6.572,13.449123 12.3827,27.259053 18.8302,40.768343 3.0579,6.40718 5.8912,12.94128 9.4151,19.10444 2.37,4.14506 5.0006,8.15148 7.8612,11.97455 2.0591,2.75203 3.9172,5.8068 6.6728,7.86116 3.7627,2.80511 8.1995,5.86258 12.8886,5.66735 5.2311,-0.21779 9.8823,-4.02553 13.8028,-7.49553 5.2675,-4.66228 8.4853,-11.24177 12.2488,-17.18485 2.3718,-3.74549 4.4813,-7.65679 6.49,-11.60892 2.8107,-5.5301 5.1609,-11.28249 7.7697,-16.91063 1.9663,-4.24191 6.8957,-14.68826 6.8957,-14.68826"
         id="path3102-3-3"
         inkscape:connector-curvature="0"
         sodipodi:nodetypes="csssssssssssssssssc" />
      <path
         style="fill:none;stroke:#000000;stroke-width:0.5;stroke-linecap:butt;stroke-linejoin:miter;stroke-miterlimit:4;stroke-dasharray:none;stroke-opacity:1"
         d="m 829.50999,109.69365 c 0,0 7.3325,-16.105313 11.2433,-24.040523 3.2773,-6.649832 6.2677,-13.483332 10.2378,-19.744312 3.1198,-4.92022 6.3764,-9.88483 10.6034,-13.89414 2.7838,-2.64043 5.9374,-5.08171 9.5065,-6.49002 1.4912,-0.5884 3.1572,-0.88065 4.7533,-0.73127 3.2814,0.30712 6.6161,1.41158 9.3237,3.29072 6.5926,4.57546 11.0065,11.78095 15.4481,18.46458 5.3325,8.02438 9.0242,17.029462 13.2542,25.685872 6.5721,13.449123 12.3828,27.259053 18.8303,40.768343 3.0578,6.40718 5.8911,12.94128 9.4151,19.10444 2.37,4.14506 5.0006,8.15148 7.8611,11.97455 2.0592,2.75203 3.9172,5.8068 6.6729,7.86116 3.7626,2.80511 8.1995,5.86258 12.8886,5.66735 5.231,-0.21779 9.8823,-4.02553 13.8027,-7.49553 5.2676,-4.66228 8.4854,-11.24177 12.2488,-17.18485 2.3718,-3.74549 4.48141,-7.65679 6.49001,-11.60892 2.8107,-5.5301 5.1609,-11.28249 7.7698,-16.91063 1.9663,-4.24191 6.8956,-14.68826 6.8956,-14.68826"
         id="path3102-5-8"
         inkscape:connector-curvature="0"
         sodipodi:nodetypes="csssssssssssssssssc" />
      <path
         style="fill:none;stroke:#000000;stroke-width:0.5;stroke-linecap:butt;stroke-linejoin:miter;stroke-miterlimit:4;stroke-dasharray:none;stroke-opacity:1"
         d="m 1016.7567,109.72111 c 0,0 7.3325,-16.105313 11.2433,-24.040523 3.2773,-6.649832 6.2677,-13.483332 10.2378,-19.744312 3.1198,-4.92022 6.3764,-9.88483 10.6034,-13.89414 2.7838,-2.64043 5.9374,-5.08171 9.5065,-6.49002 1.4912,-0.5884 3.1572,-0.88065 4.7533,-0.73127 3.2814,0.30712 6.6161,1.41158 9.3237,3.29072 6.5926,4.57546 11.0065,11.78095 15.4481,18.46458 5.3325,8.02438 9.0242,17.029462 13.2542,25.685872 6.5721,13.449123 12.3828,27.259053 18.8303,40.768343 3.0578,6.40718 5.8911,12.94128 9.4151,19.10444 2.37,4.14506 5.0006,8.15148 7.8611,11.97455 2.0592,2.75203 3.9172,5.8068 6.6729,7.86116 3.7626,2.80511 8.1995,5.86258 12.8886,5.66735 5.231,-0.21779 9.8823,-4.02553 13.8027,-7.49553 5.2676,-4.66228 8.4854,-11.24177 12.2488,-17.18485 2.3718,-3.74549 4.4814,-7.65679 6.49,-11.60892 2.8107,-5.5301 5.1609,-11.28249 7.7698,-16.91063 1.9663,-4.24191 6.8956,-14.68826 6.8956,-14.68826"
         id="path3102-3-0-0"
         inkscape:connector-curvature="0"
         sodipodi:nodetypes="csssssssssssssssssc" />
      <path
         style="fill:none;stroke:#000000;stroke-width:0.5;stroke-linecap:butt;stroke-linejoin:miter;stroke-miterlimit:4;stroke-dasharray:none;stroke-opacity:1"
         d="m 1204.0416,109.6647 c 0,0 7.3325,-16.105313 11.2433,-24.040523 3.2773,-6.649831 6.2677,-13.483331 10.2378,-19.744311 3.1199,-4.92022 6.3764,-9.88483 10.6034,-13.89413 2.7838,-2.64044 5.9375,-5.08172 9.5065,-6.49003 1.4912,-0.5884 3.1572,-0.88065 4.7533,-0.73127 3.2814,0.30712 6.6161,1.41158 9.3237,3.29072 6.5927,4.57546 11.0065,11.78095 15.4481,18.46458 5.3325,8.02438 9.0242,17.029461 13.2543,25.685871 6.572,13.449123 12.3827,27.259053 18.8302,40.768343 3.0579,6.40718 5.8911,12.94128 9.4151,19.10444 2.37,4.14506 5.0006,8.15148 7.8611,11.97455 2.0592,2.75203 3.9173,5.8068 6.6729,7.86116 3.7626,2.80511 8.1995,5.86258 12.8886,5.66735 5.231,-0.21779 9.8823,-4.02553 13.8027,-7.49553 5.2676,-4.66228 8.4854,-11.24177 12.2488,-17.18485 2.3718,-3.74549 4.4814,-7.65679 6.4901,-11.60892 2.8107,-5.5301 5.1609,-11.28249 7.7697,-16.91063 1.9663,-4.24191 6.8957,-14.68826 6.8957,-14.68826"
         id="path3102-53"
         inkscape:connector-curvature="0"
         sodipodi:nodetypes="csssssssssssssssssc" />
      <path
         style="fill:none;stroke:#000000;stroke-width:0.5;stroke-linecap:butt;stroke-linejoin:miter;stroke-miterlimit:4;stroke-dasharray:none;stroke-opacity:1"
         d="m 1391.2883,109.69216 c 0,0 7.3325,-16.105313 11.2433,-24.040523 3.2773,-6.649831 6.2677,-13.483331 10.2378,-19.744311 3.1199,-4.92022 6.3764,-9.88483 10.6034,-13.89413 2.7838,-2.64044 5.9375,-5.08172 9.5065,-6.49003 1.4912,-0.5884 3.1572,-0.88065 4.7533,-0.73127 3.2814,0.30712 6.6161,1.41158 9.3237,3.29072 6.5927,4.57546 11.0065,11.78095 15.4481,18.46458 5.3325,8.02438 9.0242,17.029461 13.2543,25.685871 6.572,13.449123 12.3827,27.259053 18.8302,40.768343 3.0579,6.40718 5.8911,12.94128 9.4151,19.10444 2.37,4.14506 5.0006,8.15148 7.8611,11.97455 2.0592,2.75203 3.9173,5.8068 6.6729,7.86116 3.7626,2.80511 8.1995,5.86258 12.8886,5.66735 5.231,-0.21779 9.8823,-4.02553 13.8027,-7.49553 5.2676,-4.66228 8.4854,-11.24177 12.2488,-17.18485 2.3718,-3.74549 4.4814,-7.65679 6.4901,-11.60892 2.8107,-5.5301 5.1609,-11.28249 7.7697,-16.91063 1.9663,-4.24191 6.8957,-14.68826 6.8957,-14.68826"
         id="path3102-3-4"
         inkscape:connector-curvature="0"
         sodipodi:nodetypes="csssssssssssssssssc" />
      <path
         style="fill:none;stroke:#000000;stroke-width:0.5;stroke-linecap:butt;stroke-linejoin:miter;stroke-miterlimit:4;stroke-dasharray:none;stroke-opacity:1"
         d="m 1578.5414,109.71044 c 0,0 7.3325,-16.105313 11.2433,-24.040523 3.2773,-6.649831 6.2677,-13.483331 10.2377,-19.744311 3.1199,-4.92022 6.3765,-9.88483 10.6035,-13.89414 2.7838,-2.64043 5.9374,-5.08171 9.5065,-6.49002 1.4912,-0.5884 3.1572,-0.88065 4.7532,-0.73127 3.2815,0.30712 6.6161,1.41158 9.3237,3.29072 6.5927,4.57546 11.0066,11.78095 15.4481,18.46458 5.3326,8.02438 9.0243,17.029461 13.2543,25.685871 6.5721,13.449123 12.3828,27.259053 18.8302,40.768343 3.0579,6.40718 5.8912,12.94128 9.4151,19.10444 2.3701,4.14506 5.0006,8.15148 7.8612,11.97455 2.0592,2.75203 3.9172,5.8068 6.6728,7.86116 3.7627,2.80511 8.1995,5.86258 12.8887,5.66735 5.231,-0.21779 9.8822,-4.02553 13.8027,-7.49553 5.2675,-4.66228 8.4854,-11.24177 12.2488,-17.18485 2.3718,-3.74549 4.4813,-7.65679 6.49,-11.60892 2.8107,-5.5301 5.1609,-11.28249 7.7698,-16.91063 1.9662,-4.24191 6.8956,-14.68826 6.8956,-14.68826"
         id="path3102-5-3"
         inkscape:connector-curvature="0"
         sodipodi:nodetypes="csssssssssssssssssc" />
      <path
         style="fill:none;stroke:#000000;stroke-width:0.5;stroke-linecap:butt;stroke-linejoin:miter;stroke-miterlimit:4;stroke-dasharray:none;stroke-opacity:1"
         d="m 1765.7881,109.7379 c 0,0 7.3325,-16.105313 11.2433,-24.040523 3.2773,-6.649831 6.2677,-13.483331 10.2377,-19.744311 3.1199,-4.92022 6.3765,-9.88483 10.6035,-13.89414 2.7838,-2.64043 5.9374,-5.08171 9.5065,-6.49002 1.4912,-0.5884 3.1572,-0.88065 4.7532,-0.73127 3.2815,0.30712 6.6161,1.41158 9.3237,3.29072 6.5927,4.57546 11.0066,11.78095 15.4481,18.46458 5.3326,8.02438 9.0243,17.029461 13.2543,25.685871 6.5721,13.449123 12.3828,27.259053 18.8302,40.768343 3.0579,6.40718 5.8912,12.94128 9.4151,19.10444 2.3701,4.14506 5.0006,8.15148 7.8612,11.97455 2.0592,2.75203 3.9172,5.8068 6.6728,7.86116 3.7627,2.80511 8.1995,5.86258 12.8887,5.66735 5.231,-0.21779 9.8822,-4.02553 13.8027,-7.49553 5.2675,-4.66228 8.4854,-11.24177 12.2488,-17.18485 2.3718,-3.74549 4.4813,-7.65679 6.49,-11.60892 2.8107,-5.5301 5.1609,-11.28249 7.7698,-16.91063 1.9662,-4.24191 6.8956,-14.68826 6.8956,-14.68826"
         id="path3102-3-0-5"
         inkscape:connector-curvature="0"
         sodipodi:nodetypes="csssssssssssssssssc" />
      <path
         style="fill:none;stroke:#000000;stroke-width:0.5;stroke-linecap:butt;stroke-linejoin:miter;stroke-miterlimit:4;stroke-dasharray:none;stroke-opacity:1"
         d="m 1953.0688,109.67549 c 0,0 7.3325,-16.105313 11.2433,-24.040523 3.2773,-6.649831 6.2678,-13.483331 10.2378,-19.744311 3.1199,-4.92022 6.3764,-9.88483 10.6034,-13.89414 2.7839,-2.64044 5.9375,-5.08171 9.5065,-6.49002 1.4912,-0.5884 3.1572,-0.88065 4.7533,-0.73127 3.2815,0.30712 6.6161,1.41158 9.3237,3.29072 6.5927,4.57546 11.0065,11.78095 15.4481,18.46458 5.3325,8.02438 9.0242,17.029461 13.2543,25.685871 6.572,13.449123 12.3827,27.259053 18.8302,40.768343 3.0579,6.40718 5.8912,12.94128 9.4151,19.10444 2.37,4.14506 5.0006,8.15148 7.8612,11.97455 2.0591,2.75203 3.9172,5.8068 6.6728,7.86116 3.7627,2.80511 8.1995,5.86258 12.8886,5.66735 5.2311,-0.21779 9.8823,-4.02553 13.8028,-7.49553 5.2675,-4.66228 8.4853,-11.24177 12.2488,-17.18485 2.3718,-3.74549 4.4813,-7.65679 6.49,-11.60892 2.8107,-5.5301 5.1609,-11.28249 7.7697,-16.91063 1.9663,-4.24191 6.8957,-14.68826 6.8957,-14.68826"
         id="path3102-4-1"
         inkscape:connector-curvature="0"
         sodipodi:nodetypes="csssssssssssssssssc" />
      <path
         style="fill:none;stroke:#000000;stroke-width:0.5;stroke-linecap:butt;stroke-linejoin:miter;stroke-miterlimit:4;stroke-dasharray:none;stroke-opacity:1"
         d="m 2140.3155,109.70295 c 0,0 7.3325,-16.105313 11.2433,-24.040523 3.2774,-6.649831 6.2678,-13.483331 10.2378,-19.744311 3.1199,-4.92022 6.3764,-9.88483 10.6034,-13.89414 2.7839,-2.64044 5.9375,-5.08171 9.5066,-6.49002 1.4911,-0.5884 3.1571,-0.88065 4.7532,-0.73127 3.2815,0.30712 6.6161,1.41158 9.3237,3.29072 6.5927,4.57546 11.0066,11.78095 15.4481,18.46458 5.3325,8.02438 9.0242,17.029461 13.2543,25.685871 6.572,13.449123 12.3827,27.259053 18.8302,40.768343 3.0579,6.40718 5.8912,12.94128 9.4151,19.10444 2.37,4.14506 5.0006,8.15148 7.8612,11.97455 2.0591,2.75203 3.9172,5.8068 6.6728,7.86116 3.7627,2.80511 8.1995,5.86258 12.8886,5.66735 5.2311,-0.21779 9.8823,-4.02553 13.8028,-7.49553 5.2675,-4.66228 8.4853,-11.24177 12.2488,-17.18485 2.3718,-3.74549 4.4813,-7.65679 6.49,-11.60892 2.8107,-5.5301 5.1609,-11.28249 7.7697,-16.91063 1.9663,-4.24191 6.8957,-14.68826 6.8957,-14.68826"
         id="path3102-3-3-2"
         inkscape:connector-curvature="0"
         sodipodi:nodetypes="csssssssssssssssssc" />
      <path
         style="fill:none;stroke:#000000;stroke-width:0.5;stroke-linecap:butt;stroke-linejoin:miter;stroke-miterlimit:4;stroke-dasharray:none;stroke-opacity:1"
         d="m 2327.5686,109.72123 c 0,0 7.3325,-16.105313 11.2433,-24.040523 3.2773,-6.649831 6.2677,-13.483331 10.2378,-19.744311 3.1198,-4.92022 6.3764,-9.88483 10.6034,-13.89414 2.7838,-2.64043 5.9374,-5.08171 9.5065,-6.49002 1.4912,-0.5884 3.1572,-0.88065 4.7533,-0.73127 3.2814,0.30712 6.6161,1.41158 9.3237,3.29072 6.5926,4.57546 11.0065,11.78095 15.4481,18.46458 5.3325,8.02438 9.0242,17.029461 13.2542,25.685871 6.5721,13.449123 12.3828,27.259053 18.8303,40.768343 3.0578,6.40718 5.8911,12.94128 9.4151,19.10444 2.37,4.14506 5.0006,8.15148 7.8611,11.97455 2.0592,2.75203 3.9172,5.8068 6.6729,7.86116 3.7626,2.80511 8.1995,5.86258 12.8886,5.66735 5.231,-0.21779 9.8823,-4.02553 13.8027,-7.49553 5.2676,-4.66228 8.4854,-11.24177 12.2488,-17.18485 2.3718,-3.74549 4.4814,-7.65679 6.49,-11.60892 2.8107,-5.5301 5.1609,-11.28249 7.7698,-16.91063 1.9663,-4.24191 6.8956,-14.68826 6.8956,-14.68826"
         id="path3102-5-8-7"
         inkscape:connector-curvature="0"
         sodipodi:nodetypes="csssssssssssssssssc" />
      <path
         style="fill:none;stroke:#000000;stroke-width:0.5;stroke-linecap:butt;stroke-linejoin:miter;stroke-miterlimit:4;stroke-dasharray:none;stroke-opacity:1"
         d="m 2514.8153,109.74869 c 0,0 7.3325,-16.105313 11.2433,-24.040523 3.2773,-6.649831 6.2677,-13.483331 10.2378,-19.744311 3.1198,-4.92022 6.3764,-9.88483 10.6034,-13.89414 2.7838,-2.64043 5.9374,-5.08171 9.5065,-6.49002 1.4912,-0.5884 3.1572,-0.88065 4.7533,-0.73127 3.2814,0.30712 6.6161,1.41158 9.3237,3.29072 6.5926,4.57546 11.0065,11.78095 15.4481,18.46458 5.3325,8.02438 9.0242,17.029461 13.2542,25.685871 6.5721,13.449123 12.3828,27.259053 18.8303,40.768343 3.0578,6.40718 5.8911,12.94128 9.4151,19.10444 2.37,4.14506 5.0006,8.15148 7.8611,11.97455 2.0592,2.75203 3.9172,5.8068 6.6729,7.86116 3.7626,2.80511 8.1995,5.86258 12.8886,5.66735 5.231,-0.21779 9.8823,-4.02553 13.8027,-7.49553 5.2676,-4.66228 8.4854,-11.24177 12.2488,-17.18485 2.3718,-3.74549 4.4814,-7.65679 6.49,-11.60892 2.8107,-5.5301 5.1609,-11.28249 7.7698,-16.91063 1.9663,-4.24191 6.8956,-14.68826 6.8956,-14.68826"
         id="path3102-3-0-0-2"
         inkscape:connector-curvature="0"
         sodipodi:nodetypes="csssssssssssssssssc" />
    </g>
    <path
       style="fill:none;stroke:#000000;stroke-width:0.173523px;stroke-linecap:butt;stroke-linejoin:miter;stroke-opacity:1"
       d="m 150.70342,162.93368 v 29.49901 0 0 0 0"
       id="path511" />
    <path
       style="fill:none;stroke:#000000;stroke-width:0.173523px;stroke-linecap:butt;stroke-linejoin:miter;stroke-opacity:1"
       d="m 155.90913,162.93368 v 29.49901"
       id="path513" />
    <path
       style="fill:none;stroke:#000000;stroke-width:0.173523px;stroke-linecap:butt;stroke-linejoin:miter;stroke-opacity:1"
       d="M 53.530194,199.37364 H 150.70342"
       id="path515" />
    <path
       style="fill:none;stroke:#000000;stroke-width:0.173523px;stroke-linecap:butt;stroke-linejoin:miter;stroke-opacity:1"
       d="M 155.90913,202.84411 H 53.530194 v 0 0 0"
       id="path517" />
    <text
       xml:space="preserve"
       style="font-style:normal;font-weight:normal;font-size:3.56093px;line-height:1.25;font-family:sans-serif;fill:#000000;fill-opacity:1;stroke:none;stroke-width:0.0890234"
       x="83.524948"
       y="207.07251"
       id="text525"
       transform="scale(1.0460545,0.95597313)"><tspan
         sodipodi:role="line"
         id="tspan523"
         x="83.524948"
         y="207.07251"
         style="stroke-width:0.0890234">Number of cycles</tspan></text>
    <text
       xml:space="preserve"
       style="font-style:normal;font-weight:normal;font-size:3.48957px;line-height:1.25;font-family:sans-serif;fill:#000000;fill-opacity:1;stroke:none;stroke-width:0.0872395"
       x="101.61744"
       y="203.55035"
       id="text529"
       transform="scale(0.98296754,1.0173276)"><tspan
         sodipodi:role="line"
         id="tspan527"
         x="101.61744"
         y="203.55035"
         style="stroke-width:0.0872395">Phase</tspan></text>
    <path
       style="fill:none;stroke:#000000;stroke-width:0.173523px;stroke-linecap:butt;stroke-linejoin:miter;stroke-opacity:1"
       d="m 53.530194,192.43269 v -29.49901 0 0"
       id="path531" />
    <path
       d="m 37.936578,169.81195 c -0.484147,0.21001 -2.87709,1.23005 -5.316363,2.27152 -2.439271,1.04148 -4.68164,1.99722 -4.980469,2.1258 -0.298829,0.12429 -0.551327,0.23144 -0.558278,0.23144 -0.0093,0 -0.08803,0.22715 -0.171421,0.50145 -0.08571,0.27858 -0.159837,0.51002 -0.162152,0.51859 -0.0046,0.009 -0.06949,-0.0471 -0.148259,-0.11572 l -0.141303,-0.13286 v -0.29573 -0.29144 l -1.4038,-1.68863 c -0.773709,-0.93004 -1.413063,-1.69293 -1.424644,-1.7015 -0.0093,-0.009 -0.02549,0.0729 -0.03243,0.18001 -0.0093,0.10714 -0.02084,0.19714 -0.02549,0.19714 -0.0022,0 -0.104242,-0.0986 -0.222383,-0.21429 l -0.215435,-0.21857 -0.333576,0.14571 -0.335891,0.14572 -0.03707,0.25287 -0.03938,0.25286 -0.356739,0.0514 c -0.196902,0.03 -0.463302,0.09 -0.59534,0.13286 l -0.236282,0.0857 -0.04401,-0.11143 -0.0417,-0.10715 -0.340525,0.16286 c -0.187636,0.09 -0.352109,0.1843 -0.368323,0.21001 -0.05328,0.0814 -0.233968,1.02862 -0.539745,2.80726 -0.238598,1.37577 -0.308092,1.73578 -0.345157,1.76578 -0.02549,0.0215 -1.994504,0.86575 -4.378181,1.88151 -2.381359,1.01575 -4.3388,1.86007 -4.350382,1.8815 -0.01853,0.0343 -1.5868017,5.12163 -1.5821687,5.13449 0.0022,0.004 0.366006,-0.13286 1.6516637,-0.62574 0.310411,-0.12 0.81309,-0.31287 1.118867,-0.43288 0.305777,-0.11572 0.806141,-0.30858 1.111919,-0.42858 0.305777,-0.11572 0.806141,-0.30858 1.111918,-0.42859 0.305778,-0.11572 0.806142,-0.30858 1.111919,-0.42859 0.305778,-0.11572 0.806142,-0.30858 1.111919,-0.42859 0.305781,-0.11572 0.806141,-0.30858 1.111922,-0.42859 0.305777,-0.11571 0.806138,-0.30858 1.111919,-0.42858 0.305777,-0.11572 0.808456,-0.31287 1.116552,-0.43288 0.31041,-0.12 0.604606,-0.22715 0.655567,-0.23572 0.08803,-0.0215 0.143623,0.0386 0.996093,1.01575 l 0.903435,1.03719 0.683367,-0.0943 c 1.545104,-0.21001 2.515718,-0.34716 2.557414,-0.36001 0.03706,-0.009 0.08803,-0.30002 0.33821,-1.9158 0.194584,-1.26005 0.305777,-1.9115 0.326624,-1.92008 0.01853,-0.009 2.548148,-1.00289 5.622141,-2.20722 l 5.587393,-2.19438 0.627771,-2.44295 c 0.77371,-3.01727 0.785292,-3.06441 0.766761,-3.06012 -0.0093,0 -0.412337,0.17143 -0.896485,0.38144 z"
       id="path68"
       style="fill:#000000;stroke:none;stroke-width:0.00315092" />
  </g>
</svg>
